<?xml version="1.0" encoding="UTF-8" standalone="no"?>
<svg width="104px" height="14px" viewBox="0 0 86 11" version="1.1" xmlns="http://www.w3.org/2000/svg" xmlns:xlink="http://www.w3.org/1999/xlink" xmlns:sketch="http://www.bohemiancoding.com/sketch/ns">
    <!-- Generator: Sketch 3.0.4 (8053) - http://www.bohemiancoding.com/sketch -->
    <title>logo</title>
    <desc>Created with Sketch.</desc>
    <defs></defs>
    <g id="Page-1" stroke="none" stroke-width="1" fill="none" fill-rule="evenodd" sketch:type="MSPage">
        <path d="M0,0 L0,14 L95.609375,14 L104,14 L104,0 L0,0 Z" id="Rectangle-1" fill="#fff" sketch:type="MSShapeGroup"></path>
    </g>
    <g id="idea" stroke="none" stroke-width="1" fill="none" fill-rule="evenodd" sketch:type="MSPage">
        <g id="logo" sketch:type="MSLayerGroup" fill="#000000">
            <path d="M15,1 L15,5 L0,5 L0,11 L1,11 L1,6 L16,6 L16,0 L0,0 L0,1 L15,1 Z" id="Path-351" sketch:type="MSShapeGroup"></path>
            <path d="M19,11 L20,11 L20,0 L19,0 L19,11 Z" id="Line" sketch:type="MSShapeGroup"></path>
            <path d="M39,0 L23,0 L23,11 L24,11 L24,1 L38,1 L38,11 L39,11 L39,0 Z" id="Path-352" sketch:type="MSShapeGroup"></path>
            <path d="M42,0 L42,11 L58,11 L58,5 L49,5 L49,6 L57,6 L57,10 L43,10 L43,1 L58,1 L58,0 L42,0 Z" id="Path-353" sketch:type="MSShapeGroup"></path>
            <path d="M66,11 L67,11 L67,0 L66,0 L66,11 Z" id="Line" sketch:type="MSShapeGroup"></path>
            <path d="M61,5 L61,6 L72,6 L72,5 L61,5 Z" id="Line-38" sketch:type="MSShapeGroup"></path>
            <path d="M80,11 L81,11 L81,0 L80,0 L80,11 Z" id="Line-40" sketch:type="MSShapeGroup"></path>
            <path d="M75,5 L75,6 L86,6 L86,5 L75,5 Z" id="Line-39" sketch:type="MSShapeGroup"></path>
        </g>
    </g>
</svg>